<svg width="206" height="202" viewBox="0 0 206 202" fill="none" xmlns="http://www.w3.org/2000/svg">
<path d="M169.261 68.0299C169.369 67.7346 169.535 67.4641 169.75 67.2351C169.965 67.0061 170.225 66.8234 170.513 66.698C170.801 66.5727 171.112 66.5073 171.426 66.506C171.74 66.5046 172.052 66.5673 172.341 66.6902C172.892 66.9475 173.326 67.4045 173.553 67.969C173.781 68.5334 173.785 69.1632 173.566 69.7309L172.499 72.6673L179.192 65.8433C180.022 64.9699 181.603 64.43 182.521 65.4275C183.316 66.1847 185.155 66.4183 185.453 67.8383C185.464 67.8458 185.445 80.8382 184.674 81.6483C181.4 85.0866 173.487 85.7506 169.073 84.0049L162.125 81.2579L169.261 68.0299Z" fill="#FFAE8E"/>
<g opacity="0.1">
<path d="M169.261 68.0299C169.369 67.7346 169.535 67.4641 169.75 67.2351C169.965 67.0061 170.225 66.8234 170.513 66.698C170.801 66.5727 171.112 66.5073 171.426 66.506C171.74 66.5046 172.052 66.5673 172.341 66.6902C172.892 66.9475 173.326 67.4045 173.553 67.969C173.781 68.5334 173.785 69.1632 173.566 69.7309L172.499 72.6673L179.192 65.8433C180.022 64.9699 181.603 64.43 182.521 65.4275C183.316 66.1847 185.155 66.4183 185.453 67.8383C185.464 67.8458 185.445 80.8382 184.674 81.6483C181.4 85.0866 173.487 85.7506 169.073 84.0049L162.125 81.2579L169.261 68.0299Z" fill="#0C0C0C"/>
</g>
<path d="M176.104 82.0969C175.852 82.0969 175.603 82.0366 175.379 81.921C175.155 81.8054 174.962 81.6379 174.816 81.4323C174.669 81.2268 174.575 80.9893 174.539 80.7396C174.503 80.49 174.528 80.2354 174.611 79.9972L202.003 1.08968C202.068 0.890037 202.173 0.705402 202.31 0.546559C202.447 0.387716 202.615 0.257849 202.803 0.164545C202.992 0.0712414 203.196 0.0163707 203.406 0.00313972C203.616 -0.0100913 203.826 0.0185835 204.024 0.0874863C204.223 0.156389 204.405 0.264138 204.562 0.404442C204.718 0.544746 204.845 0.714792 204.934 0.904642C205.024 1.09449 205.075 1.30034 205.085 1.51016C205.094 1.71999 205.062 1.92958 204.989 2.12669L177.597 81.0322C177.49 81.3429 177.288 81.6124 177.021 81.8032C176.753 81.994 176.433 82.0967 176.104 82.0969Z" fill="#0A0A0A"/>
<path d="M175.816 76.1562C175.929 75.7588 176.168 75.4089 176.497 75.1598C176.826 74.9108 177.228 74.7762 177.641 74.7765C177.636 74.7437 177.602 74.6674 177.658 74.6615L176.235 73.9711C175.812 73.7768 175.473 73.4359 175.281 73.0112C175.09 72.5866 175.059 72.107 175.194 71.6611C175.341 71.2253 175.645 70.8598 176.047 70.6353C176.448 70.4108 176.919 70.3433 177.367 70.4459C177.361 70.4285 177.37 70.4091 177.37 70.3905L176.785 70.1068C176.387 69.9219 176.065 69.6052 175.874 69.2103C175.683 68.8154 175.633 68.3664 175.735 67.9395C175.804 67.6731 175.932 67.4253 176.108 67.2141C176.284 67.003 176.506 66.8335 176.755 66.7182C177.005 66.6028 177.278 66.5443 177.553 66.5469C177.828 66.5495 178.099 66.6132 178.347 66.7333L179.695 67.3882C179.698 67.3803 179.693 67.3727 179.695 67.3652C179.698 67.3577 179.712 67.3534 179.717 67.3447C179.388 67.082 179.158 66.7153 179.065 66.3047C178.972 65.8942 179.021 65.464 179.204 65.0849C179.614 64.0759 180.954 64.038 181.826 64.4613L184.468 66.0081C184.876 66.2469 185.218 66.5828 185.465 66.9858C185.712 67.3889 185.855 67.8467 185.881 68.3185C186.119 72.4005 186.477 83.077 183.695 81.7262L176.846 78.4002C176.449 78.1936 176.133 77.8609 175.947 77.4546C175.76 77.0482 175.714 76.5914 175.816 76.1562Z" fill="#FFAE8E"/>
<path d="M29.0807 65.194C29.0807 65.194 28.2326 77.926 25.3681 82.5436C17.1225 95.843 14.7327 110.803 22.991 118.618C31.2492 126.433 83.9198 126.543 87.9098 108.566C91.269 93.4319 84.0601 91.8044 82.3062 79.3207C81.5122 73.6704 79.3279 61.8253 79.3279 61.8253" fill="#0A0A0A"/>
<path d="M74.2764 105.93C74.1855 105.918 73.1765 122.659 53.7285 121.2C40.2646 120.191 35.464 105.905 35.1538 105.905C36.6054 105.597 39.0501 105.148 39.6947 104.804C41.8146 103.665 44.4372 102.48 45.1213 98.3624C45.5165 95.9912 44.847 83.8497 45.0525 81.4476L65.7218 86.0604C65.4329 91.1309 63.4118 102.886 70.4958 104.967C71.674 105.313 72.9437 105.63 74.2764 105.93Z" fill="#FFAE8E"/>
<path opacity="0.5" d="M66.0093 100.165C65.6854 99.1217 65.477 98.0461 65.3877 96.9575C65.1602 94.4731 65.2055 91.9713 65.5228 89.4968C61.3226 88.9298 57.3656 87.1961 54.1014 84.4927C53.7176 85.9099 51.6072 92.1028 52.1914 93.4496C53.2964 95.9955 58.487 100.165 66.0093 100.165Z" fill="#0C0C0C"/>
<path d="M63.3381 94.949C55.1902 95.7394 44.6477 92.4782 42.4634 81.6274L40.4929 71.8366C38.309 60.9859 42.2377 51.0425 52.4546 48.9862C62.671 46.9312 72.0781 54.1895 74.262 65.0403L75.1342 69.3749C75.9725 73.538 77.8762 93.5425 63.3381 94.949Z" fill="#FFAE8E"/>
<path opacity="0.1" d="M58.159 80.7299C59.4999 80.57 60.4918 79.643 60.3745 78.6595C60.2571 77.6759 59.075 77.0083 57.7341 77.1683C56.3932 77.3283 55.4013 78.2553 55.5186 79.2388C55.636 80.2223 56.8181 80.8899 58.159 80.7299Z" fill="#0C0C0C"/>
<path opacity="0.1" d="M72.3279 76.798C72.4465 77.7801 73.6297 78.4468 74.9711 78.2887C75.2028 78.2609 75.431 78.2091 75.652 78.1342C75.714 76.9632 75.718 75.8365 75.6836 74.7936C75.3113 74.7005 74.9248 74.678 74.5442 74.7272C73.2021 74.8852 72.2113 75.812 72.3279 76.798Z" fill="#0C0C0C"/>
<path opacity="0.5" d="M66.4046 79.8336L66.4248 79.8304C66.8389 79.7441 67.2479 79.635 67.6499 79.5036C68.2498 79.3028 69.0351 78.9732 68.9256 78.4306C68.8015 77.8121 65.764 71.4825 65.4194 70.7636C65.388 70.7027 65.3341 70.6563 65.269 70.6345C65.204 70.6127 65.1331 70.6171 65.0713 70.6468C65.0095 70.6766 64.9617 70.7292 64.9381 70.7936C64.9146 70.858 64.9171 70.9291 64.9451 70.9917C66.2402 73.6874 68.3265 78.1192 68.4099 78.5357C68.3447 78.7298 67.3492 79.1088 66.322 79.3159C66.2879 79.3214 66.2553 79.3335 66.2259 79.3517C66.1965 79.3698 66.171 79.3935 66.1508 79.4215C66.1306 79.4495 66.1161 79.4812 66.1082 79.5147C66.1002 79.5483 66.099 79.5831 66.1045 79.6172C66.11 79.6513 66.1221 79.6839 66.1402 79.7133C66.1584 79.7427 66.1821 79.7682 66.2101 79.7884C66.2381 79.8086 66.2697 79.8231 66.3033 79.8311C66.3369 79.839 66.3717 79.8403 66.4058 79.8348L66.4046 79.8336Z" fill="#0C0C0C"/>
<path d="M32.3414 75.3511L41.5007 73.562C48.4191 70.6688 50.3821 58.6106 50.3821 58.6106C50.3821 58.6106 58.9209 66.7424 79.3289 61.8252C79.3289 61.8252 74.8959 33.3365 44.7623 41.984C35.0458 44.7721 28.1637 54.676 29.1872 67.7936C29.9045 76.9865 32.3414 75.3511 32.3414 75.3511Z" fill="#0A0A0A"/>
<path d="M43.7637 84.8056C40.6586 85.4305 37.4732 82.6154 36.8476 79.5099C36.222 76.4044 38.3953 74.1861 41.5 73.5612L43.5183 75.3195L46.4322 84.2674L43.7637 84.8056Z" fill="#FFAE8E"/>
<path d="M67.6178 65.7152C68.3946 65.1658 69.3032 64.8321 70.251 64.7482C70.7265 64.7029 71.2062 64.7295 71.6738 64.8272C72.1459 64.9237 72.6041 65.0789 73.0376 65.2892L73.0515 65.2955C73.0995 65.3167 73.1539 65.3183 73.2031 65.2999C73.2523 65.2815 73.2924 65.2446 73.3147 65.1971C73.337 65.1496 73.3399 65.0952 73.3227 65.0456C73.3055 64.9959 73.2696 64.955 73.2226 64.9316C72.7632 64.6889 72.2751 64.5051 71.7698 64.3846C71.261 64.2609 70.7365 64.2144 70.2139 64.2467C69.1554 64.3054 68.1319 64.6465 67.2498 65.2347C67.217 65.257 67.189 65.2856 67.1672 65.3187C67.1454 65.3519 67.1304 65.389 67.123 65.428C67.1156 65.467 67.1159 65.507 67.124 65.5459C67.1321 65.5847 67.1477 65.6216 67.17 65.6544C67.1923 65.6872 67.2209 65.7153 67.254 65.737C67.2872 65.7588 67.3244 65.7738 67.3633 65.7812C67.4023 65.7886 67.4423 65.7883 67.4812 65.7802C67.52 65.7722 67.5569 65.7565 67.5897 65.7342L67.5968 65.7291L67.6178 65.7152Z" fill="#0C0C0C"/>
<path d="M59.2514 66.8717C58.2112 66.665 57.1347 66.7412 56.134 67.0922C55.6393 67.2626 55.1731 67.5062 54.7508 67.815C54.3301 68.1198 53.9494 68.4763 53.6177 68.8762C53.5827 68.9157 53.5646 68.9675 53.5674 69.0202C53.5702 69.073 53.5937 69.1225 53.6327 69.1581C53.6718 69.1937 53.7232 69.2126 53.776 69.2105C53.8288 69.2085 53.8787 69.1858 53.9149 69.1473L53.9256 69.1362C54.2454 68.7759 54.6092 68.4573 55.0084 68.1877C55.4036 67.9179 55.8373 67.7095 56.2948 67.5696C57.2026 67.2848 58.1697 67.2454 59.0976 67.4554L59.1205 67.4609C59.1984 67.4798 59.2805 67.467 59.3489 67.4253C59.4172 67.3836 59.4663 67.3164 59.4851 67.2386C59.504 67.1608 59.4912 67.0787 59.4495 67.0103C59.4078 66.9419 59.3406 66.8929 59.2628 66.874L59.2514 66.8717Z" fill="#0C0C0C"/>
<path d="M41.5065 73.4119C47.6638 71.1197 49.7066 66.8681 50.3362 63.7041C50.7432 61.5939 50.7051 59.422 50.2243 57.3274L50.0339 57.3796C50.5071 59.447 50.5436 61.5905 50.141 63.6728C49.5201 66.7851 47.5057 70.9687 41.4377 73.2269L41.5065 73.4119Z" fill="#0C0C0C"/>
<path d="M90.1169 107.921L148.579 127.463L131.414 135.093L160.563 75.2903L184.388 86.3932L157.341 147.175C155.973 150.249 153.545 152.728 150.5 154.159C147.456 155.59 143.998 155.878 140.758 154.97L140.177 154.805L80.8296 138.143L90.1169 107.921Z" fill="#6918D7"/>
<path d="M53.3651 117.015C39.8921 116.38 39.325 104.944 39.325 104.944C39.325 104.944 32.6492 105.377 28.211 105.976C20.9456 106.958 16.1525 109.423 12.3404 113.237C8.79222 116.785 6.63202 120.624 8.91789 145.134C10.573 162.881 9.40794 201.917 9.40794 201.917H91.5119C91.5119 201.917 97.2455 145.521 97.9249 137.534C99.2223 122.283 102.887 118.916 95.4619 111.06C90.0773 105.363 76.1759 104.944 70.5806 104.945C70.4873 104.945 71.7137 117.88 53.3651 117.015Z" fill="#6918D7"/>
<path d="M81.4097 164.049L93.7689 158.53C94.0405 158.408 94.3344 158.345 94.6318 158.344C94.9292 158.342 95.2237 158.403 95.4964 158.521C95.7692 158.64 96.0143 158.814 96.2161 159.032C96.4179 159.251 96.572 159.509 96.6685 159.79C96.8306 160.315 96.792 160.881 96.5604 161.379C96.3287 161.878 95.9204 162.272 95.4146 162.486L92.7643 163.672L102.807 163.775C103.923 163.767 105.299 164.472 105.226 165.725C105.228 166.208 105.067 166.679 104.768 167.059C104.469 167.439 104.05 167.707 103.58 167.819C103.582 167.83 103.584 167.841 103.585 167.851C103.584 167.86 103.582 167.868 103.58 167.876L105.301 167.864C105.62 167.861 105.935 167.93 106.224 168.065C106.513 168.201 106.768 168.398 106.971 168.644C107.173 168.89 107.319 169.179 107.396 169.488C107.473 169.797 107.48 170.12 107.417 170.432C107.307 170.923 107.033 171.361 106.639 171.673C106.245 171.986 105.756 172.153 105.253 172.148L104.52 172.153C104.511 172.174 104.497 172.194 104.481 172.21C104.976 172.321 105.416 172.606 105.722 173.012C106.028 173.418 106.179 173.919 106.149 174.426C106.1 174.981 105.844 175.496 105.431 175.87C105.019 176.244 104.48 176.448 103.924 176.442L102.103 176.455C102.129 176.473 102.15 176.496 102.165 176.524C102.18 176.551 102.188 176.582 102.189 176.613C102.188 176.65 102.175 176.687 102.154 176.717C102.568 176.939 102.897 177.291 103.092 177.718C103.287 178.146 103.336 178.625 103.231 179.083C103.112 179.562 102.834 179.987 102.443 180.288C102.052 180.589 101.571 180.75 101.078 180.743L85.7206 180.853C83.5721 180.868 81.468 180.242 79.678 179.053C77.8879 177.865 76.4936 176.169 75.6737 174.183C74.9665 172.471 74.9549 170.551 75.6412 168.83C76.3275 167.109 77.6576 165.724 79.3491 164.968L81.4097 164.049Z" fill="#FFAE8E"/>
<g opacity="0.2">
<path d="M93.6389 167.767C93.6397 167.819 93.6609 167.868 93.6979 167.905C93.7349 167.941 93.7847 167.962 93.8365 167.962L103.387 168.048C103.439 168.048 103.49 168.028 103.527 167.991C103.565 167.954 103.586 167.904 103.586 167.852C103.587 167.799 103.567 167.749 103.53 167.712C103.493 167.674 103.443 167.653 103.391 167.653L93.8401 167.566C93.7877 167.566 93.7374 167.587 93.7003 167.624C93.6633 167.661 93.6425 167.712 93.6425 167.764L93.6389 167.767Z" fill="#0C0C0C"/>
</g>
<g opacity="0.2">
<path d="M93.4849 171.978C93.4856 172.03 93.5067 172.08 93.5437 172.116C93.5807 172.153 93.6305 172.173 93.6825 172.173L104.341 172.269C104.394 172.269 104.444 172.248 104.481 172.211C104.518 172.174 104.539 172.124 104.539 172.071C104.537 172.02 104.516 171.97 104.479 171.934C104.442 171.897 104.393 171.876 104.341 171.874L93.6829 171.778C93.6305 171.778 93.5802 171.799 93.5431 171.836C93.5061 171.873 93.4853 171.923 93.4853 171.975L93.4849 171.978Z" fill="#0C0C0C"/>
</g>
<g opacity="0.2">
<path d="M93.2917 176.538C93.2925 176.59 93.3136 176.639 93.3506 176.676C93.3876 176.712 93.4374 176.733 93.4894 176.733L101.991 176.809C102.017 176.81 102.043 176.805 102.067 176.795C102.091 176.785 102.113 176.771 102.132 176.753C102.15 176.735 102.165 176.713 102.175 176.689C102.185 176.665 102.191 176.64 102.191 176.614C102.191 176.588 102.186 176.562 102.176 176.538C102.167 176.514 102.152 176.492 102.134 176.473C102.116 176.455 102.094 176.44 102.07 176.43C102.047 176.42 102.021 176.414 101.995 176.414L93.4929 176.338C93.4405 176.338 93.3902 176.358 93.3532 176.395C93.3161 176.433 93.2953 176.483 93.2953 176.535L93.2917 176.538Z" fill="#0C0C0C"/>
</g>
<path d="M84.9472 186.056L16.4237 201.632C14.1474 201.88 11.8445 201.597 9.69594 200.805C7.54735 200.014 5.61144 198.735 4.04012 197.069C2.46879 195.403 1.30478 193.396 0.639432 191.205C-0.0259186 189.014 -0.174517 186.699 0.205298 184.441L8.04696 121.366C8.36983 119.447 9.06757 117.61 10.1004 115.96C11.1331 114.31 12.4807 112.88 14.0662 111.751C15.6517 110.623 17.444 109.817 19.3408 109.381C21.2376 108.945 23.2017 108.886 25.121 109.209C27.0404 109.532 28.8773 110.23 30.527 111.263C32.1767 112.295 33.6068 113.643 34.7356 115.228C35.8645 116.814 36.67 118.606 37.1063 120.503C37.5425 122.4 37.6008 124.364 37.2779 126.283L33.5002 171.428L81.1082 160.655L84.9472 186.056Z" fill="#6918D7"/>
<path d="M23.8665 173.204C23.8169 173.203 23.7692 173.184 23.7329 173.15C23.6966 173.117 23.6744 173.07 23.6707 173.021C23.667 172.971 23.6821 172.922 23.713 172.883C23.7438 172.844 23.7882 172.818 23.8373 172.811L33.3858 170.772C33.4115 170.768 33.4378 170.769 33.4631 170.775C33.4885 170.781 33.5123 170.792 33.5332 170.808C33.5542 170.823 33.5719 170.842 33.5852 170.865C33.5985 170.887 33.6071 170.912 33.6107 170.938C33.6184 170.99 33.6053 171.042 33.5741 171.084C33.543 171.127 33.4965 171.155 33.4447 171.162L23.8962 173.201C23.8864 173.203 23.8764 173.204 23.8665 173.204Z" fill="#0C0C0C"/>
<path d="M18.4792 201.917C18.4268 201.92 18.3752 201.903 18.3358 201.868C18.2963 201.833 18.2723 201.784 18.269 201.732C18.2656 201.68 18.2832 201.628 18.3179 201.589C18.3526 201.549 18.4015 201.525 18.4539 201.522L84.5168 185.964L80.7739 160.947L33.45 171.163C33.4194 171.167 33.3883 171.164 33.3592 171.154C33.33 171.143 33.3036 171.127 33.282 171.105C33.2605 171.082 33.2444 171.055 33.2352 171.026C33.226 170.996 33.2239 170.965 33.2291 170.934L35.8833 145.139C35.8873 145.114 35.8964 145.089 35.9101 145.067C35.9238 145.045 35.9418 145.025 35.9631 145.01C35.9843 144.995 36.0084 144.984 36.0339 144.979C36.0593 144.973 36.0856 144.973 36.1113 144.977C36.163 144.986 36.2091 145.015 36.2395 145.058C36.2698 145.1 36.282 145.153 36.2733 145.205L33.665 170.735L80.8655 160.511C80.8909 160.504 80.9175 160.502 80.9436 160.506C80.9698 160.509 80.995 160.518 81.0177 160.531C81.0404 160.544 81.0602 160.562 81.076 160.583C81.0918 160.604 81.1033 160.628 81.1098 160.654L84.9488 186.055C84.9609 186.105 84.9531 186.158 84.9271 186.202C84.9011 186.246 84.8588 186.278 84.8093 186.292L18.5057 201.915C18.4969 201.916 18.4881 201.917 18.4792 201.917Z" fill="#0C0C0C"/>
<path d="M69.1342 81.9724C66.4868 83.3185 63.4663 83.7442 60.5499 83.1821C60.4489 83.163 60.3446 83.173 60.2491 83.211C60.1536 83.249 60.0709 83.3135 60.0107 83.3968C59.9505 83.4801 59.9153 83.5788 59.9092 83.6814C59.903 83.784 59.9262 83.8862 59.9761 83.9761C60.8455 85.5083 62.9081 88.1257 66.4456 87.0587C68.7299 86.3694 69.5938 84.0191 69.9139 82.5656C69.9357 82.465 69.9284 82.3604 69.8928 82.2639C69.8572 82.1674 69.7948 82.083 69.7129 82.0207C69.631 81.9585 69.5331 81.9208 69.4306 81.9122C69.3281 81.9037 69.2252 81.9245 69.1342 81.9724Z" fill="white"/>
<path d="M69.2998 70.198C70.0063 70.198 70.5791 69.6253 70.5791 68.9187C70.5791 68.2122 70.0063 67.6395 69.2998 67.6395C68.5933 67.6395 68.0205 68.2122 68.0205 68.9187C68.0205 69.6253 68.5933 70.198 69.2998 70.198Z" fill="#0C0C0C"/>
<path d="M57.0071 72.3503C57.7136 72.3503 58.2863 71.7776 58.2863 71.0711C58.2863 70.3645 57.7136 69.7918 57.0071 69.7918C56.3005 69.7918 55.7278 70.3645 55.7278 71.0711C55.7278 71.7776 56.3005 72.3503 57.0071 72.3503Z" fill="#0C0C0C"/>
<path d="M97.7404 143.089C97.7323 143.089 97.7241 143.089 97.7159 143.089C97.6901 143.085 97.6652 143.077 97.6427 143.064C97.6201 143.052 97.6002 143.034 97.5842 143.014C97.5683 142.993 97.5565 142.97 97.5496 142.945C97.5427 142.92 97.5408 142.894 97.544 142.868L98.8154 132.562C98.8181 132.536 98.826 132.511 98.8387 132.488C98.8513 132.466 98.8685 132.446 98.8891 132.429C98.9097 132.413 98.9333 132.402 98.9585 132.395C98.9838 132.388 99.0101 132.387 99.0359 132.391C99.0878 132.397 99.135 132.424 99.1672 132.465C99.1993 132.507 99.2138 132.559 99.2074 132.611L97.936 142.917C97.9298 142.964 97.9065 143.008 97.8706 143.039C97.8346 143.071 97.7883 143.088 97.7404 143.089Z" fill="#0C0C0C"/>
</svg>
